# xmcd CD database file
#
# Track frame offsets:
#	150
#	17586
#	36875
#	57305
#	82316
#	100497
#	123122
#	142602
#	164010
#	183954
#	203503
#	217449
#	231731
#
# Disc length: 3245 seconds
#
# Revision: 0
# Processed by: cddbd v1.5.2PL0 Copyright (c) Steve Scherf et al.
# Submitted via: CDex 1.70beta2
#
DISCID=bd0cab0d
DTITLE=Eliane Elias - Around the City (Unofficial Release)
DYEAR=2006
DGENRE=Jazz
TTITLE0=Running
TTITLE1=Oye como va
TTITLE2=Around the city
TTITLE3=Jammin'
TTITLE4=Segredos (Secrets)
TTITLE5=We're so good
TTITLE6=Tropicalia
TTITLE7=Slide Show
TTITLE8=A vizinha do lado (The next door neighbour)
TTITLE9=Save your love for me
TTITLE10=Chiclete com banana
TTITLE11=Another day
TTITLE12=Segredos (Secrets) Part 2
EXTD=YEAR: 2006
EXTT0=
EXTT1=
EXTT2=
EXTT3=
EXTT4=
EXTT5=
EXTT6=
EXTT7=
EXTT8=
EXTT9=
EXTT10=
EXTT11=
EXTT12=
PLAYORDER=
